<?xml version="1.0" encoding="UTF-8"?>
<svg width="435" height="346" viewBox="0 0 435 346" fill="none" xmlns="http://www.w3.org/2000/svg">
<path d="M107.792 124.411V341.599L51.503 341.32L19.1169 322.915V105.748H75.4059L107.792 124.411ZM28.996 315.785H69.908V115.348H28.996V315.785Z" fill="#38B6FF"/>
<path d="M160.796 193.607L211.866 193.865L193.182 183.707C192.452 180.974 191.668 178.553 190.841 176.448C190.025 174.343 189.064 172.378 187.963 170.542C180.458 170.73 174.697 172.835 170.675 176.856C166.648 180.883 163.357 186.467 160.796 193.607ZM198.959 238.364V263.34C195.48 268.656 191.083 272.683 185.773 275.431C180.458 278.17 174.97 279.533 169.301 279.533C169.301 279.533 169.07 279.587 168.613 279.684C168.152 279.77 166.643 279.721 164.082 279.533C151.266 278.621 141.65 272.951 135.239 262.524C128.84 252.087 125.64 236.254 125.64 215.019C125.64 208.791 126.139 202.112 127.143 194.982C128.158 187.841 130.032 181.065 132.77 174.665C135.519 168.255 139.545 163.036 144.861 159.009C150.171 154.988 157.22 152.974 166.015 152.974C175.706 152.974 183.711 155.675 190.025 161.071C196.339 166.472 200.774 172.92 203.34 180.421L237.122 165.323C230.347 149.034 221.241 135.896 209.805 125.915C198.363 115.939 184.495 110.946 168.205 110.946C150.622 110.946 135.562 115.477 123.02 124.54C110.488 133.603 100.84 145.963 94.0697 161.608C87.294 177.259 83.9115 194.971 83.9115 214.74C83.9115 235.056 86.9718 252.903 93.1033 268.28C99.2294 283.657 107.97 295.785 119.326 304.66C130.676 313.541 144.131 318.717 159.679 320.188C160.968 320.188 162.203 320.231 163.395 320.317C164.581 320.402 165.822 320.542 167.11 320.725C184.49 320.725 199.131 317.203 211.029 310.158C222.927 303.114 231.624 294.008 237.122 282.841V202.928L155.577 202.391V238.084L198.959 238.364ZM189.617 260.871V258.401L176.71 258.959L156.673 247.427C157.027 253.456 157.897 257.939 159.271 260.871C160.646 263.807 162.342 267.013 164.361 270.492H165.456C171.497 270.492 176.393 269.67 180.146 268.022C183.894 266.363 187.051 263.979 189.617 260.871ZM274.727 211.733V300.967C268.682 314.325 259.028 325.122 245.756 333.353C232.494 341.599 216.344 345.723 197.306 345.723C179.18 345.723 162.611 342.7 147.61 336.66C132.603 330.62 119.605 321.879 108.609 310.438C97.624 299.002 89.1141 285.225 83.0739 269.117C77.0445 253.01 74.0325 234.884 74.0325 214.74C74.0325 199.739 76.1371 185.42 80.3465 171.788C84.5558 158.145 90.6819 146.059 98.73 135.536C106.789 125.013 116.625 116.733 128.238 110.688C139.862 104.648 153.092 101.625 167.926 101.625C180.366 101.625 192.398 103.961 204.028 108.626C215.652 113.297 226.363 119.66 236.156 127.719C245.949 135.767 254.411 144.824 261.541 154.886C268.682 164.953 273.997 175.476 277.476 186.456L251.404 198.268L274.727 211.733Z" fill="#38B6FF"/>
<path d="M334.329 274.336V341.32H278.577L246.191 322.657V105.748H324.987C335.048 105.748 344.197 107.305 352.433 110.409C360.68 113.517 369.19 117.453 377.968 122.22C393.173 130.081 404.84 139.96 412.974 151.858C421.119 163.755 425.194 178.767 425.194 196.893C425.194 221.795 418.692 240.93 405.694 254.299C392.706 267.657 374.951 274.336 352.433 274.336H334.329ZM255.791 315.785H296.144V248.522H323.891C343.478 248.522 358.94 242.669 370.28 230.954C381.63 219.228 387.31 202.386 387.31 180.421C387.31 167.981 384.884 156.862 380.03 147.068C375.176 137.275 368.121 129.544 358.876 123.874C349.641 118.194 338.436 115.348 325.266 115.348H255.791V315.785ZM316.74 211.991H296.144V152.137C303.102 152.137 308.042 152.137 310.963 152.137C313.894 152.137 315.956 152.137 317.148 152.137C318.351 152.137 319.585 152.137 320.863 152.137C328.192 152.867 334.007 155.525 338.302 160.104C342.597 164.69 344.745 171.916 344.745 181.795C344.745 192.405 342.044 200.093 336.648 204.861C331.247 209.618 324.611 211.991 316.74 211.991ZM326.082 172.732V201.833C329.185 199.83 331.521 197.086 333.083 193.607C334.64 190.128 335.424 185.736 335.424 180.421C335.424 177.13 335.145 174.569 334.586 172.732H326.082Z" fill="#38B6FF"/>
<mask id="mask0_49_798" style="mask-type:luminance" maskUnits="userSpaceOnUse" x="0" y="80" width="78" height="30">
<path d="M0 80.879H77.6148V109.136H0V80.879Z" fill="white"/>
</mask>
<g mask="url(#mask0_49_798)">
<mask id="mask1_49_798" style="mask-type:luminance" maskUnits="userSpaceOnUse" x="0" y="80" width="78" height="30">
<path d="M58.2004 80.879H0L19.4037 109.136H77.5987L58.2004 80.879Z" fill="white"/>
</mask>
<g mask="url(#mask1_49_798)">
<path d="M0 80.879H77.6148V109.136H0V80.879Z" fill="#38B6FF"/>
</g>
</g>
<mask id="mask2_49_798" style="mask-type:luminance" maskUnits="userSpaceOnUse" x="36" y="0" width="81" height="80">
<path d="M36.9709 0H116.83V79.859H36.9709V0Z" fill="white"/>
</mask>
<g mask="url(#mask2_49_798)">
<mask id="mask3_49_798" style="mask-type:luminance" maskUnits="userSpaceOnUse" x="36" y="0" width="81" height="80">
<path d="M76.9005 0L89.609 27.2264L116.83 39.9295L89.609 52.638L76.9005 79.859L64.1973 52.638L36.9709 39.9295L64.1973 27.2264L76.9005 0Z" fill="white"/>
</mask>
<g mask="url(#mask3_49_798)">
<path d="M36.9709 0H116.83V79.859H36.9709V0Z" fill="#38B6FF"/>
</g>
</g>
<mask id="mask4_49_798" style="mask-type:luminance" maskUnits="userSpaceOnUse" x="89" y="60" width="40" height="40">
<path d="M89.7756 60.5574H128.384V99.1661H89.7756V60.5574Z" fill="white"/>
</mask>
<g mask="url(#mask4_49_798)">
<mask id="mask5_49_798" style="mask-type:luminance" maskUnits="userSpaceOnUse" x="89" y="60" width="40" height="40">
<path d="M109.083 60.5574L115.225 73.7169L128.384 79.8591L115.225 86.0012L109.083 99.1661L102.941 86.0012L89.7756 79.8591L102.941 73.7169L109.083 60.5574Z" fill="white"/>
</mask>
<g mask="url(#mask5_49_798)">
<path d="M89.7756 60.5574H128.384V99.1661H89.7756V60.5574Z" fill="#38B6FF"/>
</g>
</g>
<mask id="mask6_49_798" style="mask-type:luminance" maskUnits="userSpaceOnUse" x="118" y="31" width="48" height="46">
<path d="M118.801 31.5216H165.533V76.8792H118.801V31.5216Z" fill="white"/>
</mask>
<g mask="url(#mask6_49_798)">
<mask id="mask7_49_798" style="mask-type:luminance" maskUnits="userSpaceOnUse" x="116" y="22" width="59" height="58">
<path d="M130.328 22.7324L174.564 36.4986L161.109 79.7516L116.873 65.9854L130.328 22.7324Z" fill="white"/>
</mask>
<g mask="url(#mask7_49_798)">
<mask id="mask8_49_798" style="mask-type:luminance" maskUnits="userSpaceOnUse" x="116" y="22" width="59" height="58">
<path d="M130.328 22.7324L174.564 36.4986L161.109 79.7516L116.873 65.9854L130.328 22.7324Z" fill="white"/>
</mask>
<g mask="url(#mask8_49_798)">
<path d="M163.471 70.5974C164.191 66.7908 164.733 62.9519 165.34 59.1238C165.479 58.254 165.544 57.3735 165.528 56.493C165.512 55.6124 165.42 54.7373 165.249 53.8729C165.071 53.0031 164.824 52.1602 164.502 51.3441C164.175 50.5226 163.783 49.7334 163.316 48.9871C162.849 48.2354 162.322 47.532 161.732 46.877C161.136 46.222 160.492 45.626 159.794 45.0891C159.096 44.5522 158.349 44.0798 157.565 43.6771C156.782 43.269 155.971 42.9362 155.128 42.6784C153.292 42.1093 151.455 41.5348 149.619 40.9657C149.657 40.8691 149.7 40.7778 149.748 40.6865C150.054 40.1443 150.494 39.7416 151.058 39.4785C151.332 39.355 151.617 39.2798 151.912 39.2476C152.025 39.2261 152.025 39.2315 151.923 39.2476C152.035 39.2423 152.148 39.2423 152.261 39.2476C152.433 39.253 152.599 39.2637 152.771 39.2852C152.825 39.2959 152.884 39.3013 152.937 39.3067C152.996 39.3174 153.05 39.3282 153.109 39.3389C153.308 39.3819 153.512 39.4302 153.705 39.4785C154.076 39.5698 154.441 39.6664 154.811 39.7577C156.502 40.1657 158.306 40.3429 159.831 39.3282C160.604 38.7376 161.216 38.0127 161.662 37.1483C162.113 36.2839 162.349 35.3658 162.381 34.3886C162.387 34.1739 162.355 33.9645 162.274 33.7605C162.199 33.5564 162.086 33.3739 161.936 33.2182C161.785 33.0571 161.614 32.9336 161.415 32.8424C161.222 32.7511 161.012 32.7028 160.792 32.692C160.577 32.6867 160.368 32.7242 160.164 32.8048C159.965 32.8799 159.783 32.9927 159.627 33.143C159.466 33.2934 159.343 33.4652 159.251 33.6585C159.16 33.8571 159.106 34.0611 159.096 34.2813C159.01 34.9309 158.811 35.543 158.494 36.1121C158.242 36.5309 157.866 36.7618 157.383 36.7993C157.367 36.7886 156.986 36.8101 156.932 36.8047C156.792 36.7993 156.653 36.7832 156.518 36.7618C156.524 36.7618 156.175 36.7027 156.121 36.692C155.928 36.6436 155.729 36.5953 155.531 36.547C154.688 36.3161 153.834 36.1336 152.964 36.0047C152.051 35.892 151.16 35.9779 150.285 36.2624C149.415 36.5524 148.642 37.0141 147.982 37.6477C147.305 38.3134 146.817 39.0919 146.511 39.9886C145.238 39.5912 143.966 39.1886 142.682 38.8181C141.775 38.5443 140.852 38.3456 139.907 38.2221C138.425 38.0503 136.943 38.104 135.472 38.3832C134.006 38.6624 132.61 39.1564 131.289 39.8597C129.974 40.5684 128.787 41.4543 127.74 42.5227C126.693 43.5965 125.829 44.7938 125.153 46.1307C123.408 49.6689 121.738 53.2447 120.068 56.8205C119.569 57.8352 119.322 58.909 119.322 60.0419C119.322 61.1748 119.569 62.2486 120.063 63.2633C120.197 63.5533 120.347 63.8324 120.514 64.1009C120.68 64.3693 120.863 64.6271 121.061 64.874C121.26 65.121 121.469 65.3572 121.7 65.5774C121.926 65.7975 122.167 66.0015 122.42 66.1948C122.672 66.3827 122.935 66.5599 123.209 66.7156C123.488 66.8767 123.767 67.0163 124.063 67.1398C124.353 67.2633 124.653 67.3653 124.959 67.4512C125.26 67.5371 125.571 67.6015 125.883 67.6498C126.2 67.6981 126.511 67.725 126.828 67.7357C127.144 67.7465 127.461 67.7357 127.778 67.7035C128.095 67.6713 128.406 67.623 128.712 67.5532C129.024 67.4834 129.33 67.3975 129.625 67.2901C129.926 67.1827 130.216 67.0592 130.5 66.9143C130.779 66.7747 131.053 66.6136 131.316 66.4364C131.579 66.2592 131.832 66.0713 132.068 65.8619C132.309 65.6525 132.535 65.4324 132.75 65.1962C134.028 63.8378 135.327 62.5009 136.615 61.1479C136.766 60.96 136.948 60.9117 137.174 61.003C140.465 62.0392 143.762 63.0647 147.058 64.0794C147.3 64.1224 147.423 64.2673 147.439 64.5089C147.735 66.3398 148.051 68.1653 148.325 69.9961C148.384 70.4632 148.481 70.9196 148.626 71.3706C148.766 71.8162 148.948 72.2457 149.168 72.6645C149.388 73.0779 149.646 73.4699 149.936 73.835C150.231 74.2054 150.553 74.5437 150.908 74.8497C151.262 75.1557 151.643 75.4296 152.046 75.6712C152.454 75.9074 152.878 76.1061 153.319 76.2671C153.759 76.4282 154.21 76.5463 154.677 76.6269C155.139 76.702 155.606 76.7396 156.073 76.7289C156.953 76.7235 157.802 76.5732 158.623 76.2725C159.45 75.9772 160.196 75.5477 160.873 74.9893C161.544 74.4256 162.108 73.7705 162.553 73.0189C162.999 72.2618 163.305 71.4565 163.471 70.5974ZM140.342 51.736L137.244 50.7696L136.277 53.8621L133.195 52.9065L134.156 49.83L131.016 48.8528C131.332 47.8327 131.622 46.877 131.939 45.9267C131.96 45.8623 132.202 45.8086 132.315 45.8408C133.088 46.0663 133.856 46.3133 134.624 46.5495L135.096 46.6998L136.052 43.6234L139.15 44.5898L138.194 47.6609C139.139 47.9562 140.009 48.2408 140.895 48.4931C141.233 48.5897 141.308 48.724 141.19 49.0622C140.889 49.9266 140.631 50.8072 140.342 51.736ZM156.803 48.3428C157.077 48.434 157.324 48.5683 157.544 48.7562C157.764 48.9387 157.941 49.1589 158.07 49.4166C158.204 49.6689 158.28 49.9427 158.301 50.2273C158.328 50.5172 158.296 50.7964 158.204 51.0702C158.118 51.3441 157.979 51.5857 157.796 51.8058C157.608 52.0259 157.388 52.1977 157.131 52.332C156.878 52.4608 156.604 52.536 156.32 52.5628C156.03 52.5843 155.751 52.5521 155.477 52.4608C155.203 52.3749 154.961 52.2353 154.741 52.0474C154.521 51.8595 154.349 51.6394 154.221 51.3816C154.086 51.1293 154.011 50.8555 153.99 50.5709C153.968 50.281 154 50.0018 154.092 49.728C154.183 49.4595 154.317 49.2179 154.5 48.9978C154.688 48.783 154.908 48.6059 155.16 48.477C155.412 48.3481 155.681 48.273 155.965 48.2515C156.25 48.2247 156.529 48.2569 156.798 48.3481L156.803 48.3428ZM150.07 55.3333C149.796 55.2474 149.544 55.1131 149.324 54.9306C149.104 54.748 148.927 54.5279 148.792 54.2756C148.658 54.0232 148.578 53.7548 148.545 53.4648C148.519 53.1803 148.551 52.9011 148.631 52.6273C148.717 52.3534 148.851 52.1065 149.034 51.881C149.217 51.6608 149.437 51.4837 149.689 51.3494C149.941 51.2152 150.215 51.1347 150.5 51.1078C150.784 51.081 151.064 51.1078 151.337 51.1937C151.617 51.2743 151.864 51.4085 152.084 51.591C152.304 51.779 152.481 51.9937 152.615 52.2514C152.749 52.5038 152.83 52.7722 152.857 53.0568C152.884 53.3467 152.857 53.6259 152.771 53.8997C152.685 54.1735 152.551 54.4205 152.368 54.6353C152.186 54.8554 151.966 55.0326 151.713 55.1668C151.461 55.301 151.192 55.3816 150.908 55.4138C150.623 55.4406 150.344 55.4138 150.07 55.3333ZM152.937 60.7721C152.663 60.6916 152.411 60.5573 152.191 60.3748C151.971 60.1922 151.794 59.9775 151.654 59.7198C151.52 59.4674 151.439 59.199 151.413 58.9144C151.386 58.6298 151.413 58.3453 151.493 58.0715C151.579 57.7976 151.713 57.5507 151.896 57.3252C152.073 57.105 152.293 56.9279 152.545 56.7936C152.798 56.654 153.072 56.5735 153.356 56.5467C153.641 56.5198 153.92 56.5467 154.194 56.6326C154.473 56.7131 154.72 56.8473 154.94 57.0299C155.16 57.2124 155.343 57.4272 155.477 57.6849C155.611 57.9372 155.692 58.2057 155.724 58.4903C155.751 58.7748 155.724 59.0594 155.638 59.3332C155.552 59.607 155.423 59.854 155.241 60.0741C155.058 60.2996 154.838 60.4768 154.586 60.611C154.333 60.7452 154.065 60.8312 153.775 60.858C153.49 60.8848 153.211 60.858 152.937 60.7721ZM158.344 57.905C158.07 57.8191 157.823 57.6849 157.603 57.497C157.388 57.3144 157.211 57.0943 157.082 56.842C156.948 56.5842 156.867 56.3158 156.846 56.0312C156.819 55.7467 156.851 55.4675 156.937 55.1937C157.023 54.9198 157.157 54.6729 157.34 54.4527C157.528 54.238 157.743 54.0608 157.995 53.9266C158.253 53.7923 158.521 53.7118 158.806 53.6903C159.09 53.6635 159.369 53.6903 159.643 53.7762C159.917 53.8621 160.164 53.9964 160.384 54.1789C160.604 54.3615 160.781 54.5762 160.916 54.8286C161.05 55.0809 161.13 55.3547 161.157 55.6393C161.184 55.9239 161.157 56.203 161.071 56.4769C160.991 56.7507 160.857 57.003 160.669 57.2285C160.486 57.4487 160.266 57.6258 160.008 57.7654C159.751 57.8997 159.477 57.9748 159.192 58.0017C158.902 58.0285 158.618 57.9963 158.344 57.905Z" fill="#38B6FF"/>
</g>
</g>
</g>
<path d="M198.006 95.5539H192.719L189.65 93.7876C189.679 92.7176 189.701 91.6816 189.718 90.6853C189.741 89.6832 189.752 88.6189 189.752 87.4923C189.177 87.8263 188.577 88.1603 187.952 88.5C187.332 88.834 186.718 89.1567 186.106 89.4738L183.094 87.7527L179.788 83.0992C181.365 82.4595 182.984 81.6669 184.646 80.7215C186.313 79.7704 187.924 78.7174 189.48 77.5625C191.034 76.4076 192.436 75.1905 193.681 73.9054C194.932 72.6231 195.923 71.3323 196.647 70.0331L199.874 71.856L204.301 75.1848C203.311 76.385 202.263 77.5399 201.154 78.6495C200.044 79.7591 198.949 80.7838 197.87 81.7179C197.853 82.1481 197.848 82.6237 197.848 83.1445C197.848 83.6653 197.848 84.1862 197.848 84.707C197.848 85.8024 197.85 86.9771 197.859 88.2283C197.865 89.4738 197.882 90.7305 197.904 91.9987C197.933 93.2583 197.967 94.4443 198.006 95.5539ZM190.59 93.1083H194.36C194.343 92.1204 194.326 91.0674 194.304 89.9493C194.287 88.834 194.275 87.6961 194.27 86.5412C194.261 85.3863 194.258 84.2824 194.258 83.2238C194.258 82.6208 194.258 82.0292 194.258 81.4461C194.258 80.8658 194.264 80.3139 194.281 79.793C195.374 78.8363 196.424 77.8626 197.429 76.8718C198.431 75.884 199.368 74.8678 200.237 73.8261L196.987 71.3125C196.308 72.4901 195.371 73.6789 194.179 74.8791C192.993 76.0736 191.666 77.2172 190.194 78.3098C188.722 79.3968 187.205 80.3903 185.642 81.2876C184.08 82.1793 182.588 82.918 181.17 83.5068L183.536 86.8356C185.86 85.6439 188.238 84.1975 190.669 82.4991V85.3863C190.669 86.7224 190.661 88.0641 190.647 89.4058C190.638 90.7504 190.618 91.9845 190.59 93.1083Z" fill="#38B6FF"/>
<path d="M214.942 77.4946L211.376 81.8991L208.228 80.1328C207.676 79.6289 207.017 79.0854 206.247 78.5023C205.483 77.9221 204.687 77.3361 203.858 76.7473C203.026 76.1586 202.23 75.6321 201.469 75.1622L205.081 71.1541C205.986 71.556 206.997 72.0938 208.115 72.7732C209.23 73.4469 210.382 74.1885 211.568 75.0037C212.76 75.8189 213.884 76.6511 214.942 77.4946ZM208.489 79.1704L210.934 76.1246C210.088 75.4622 209.157 74.7772 208.138 74.0752C207.124 73.3733 206.185 72.7817 205.318 72.2976L202.873 74.9471C203.408 75.2811 204.019 75.6915 204.707 76.1812C205.392 76.6653 206.069 77.1719 206.734 77.6984C207.405 78.2278 207.99 78.7175 208.489 79.1704ZM202.737 88.0585L204.22 92.0666C207.133 91.5458 209.7 90.6825 211.919 89.4738C214.144 88.2595 216.086 86.7111 217.739 84.8316C219.398 82.9464 220.819 80.7725 221.996 78.3098L219.154 75.8302C218.164 78.14 216.924 80.1724 215.429 81.9217C213.94 83.6739 212.151 85.0807 210.063 86.145C207.971 87.2036 205.528 87.8405 202.737 88.0585ZM221.996 76.2718L225.869 79.6572C224.584 82.3293 223.049 84.6901 221.26 86.7338C219.477 88.7803 217.38 90.4673 214.965 91.7949C212.556 93.1225 209.762 94.0651 206.587 94.6255L203.575 92.8819L201.469 87.1753C204.464 86.9715 207.054 86.3431 209.236 85.2845C211.424 84.2202 213.289 82.7709 214.829 80.9367C216.375 79.0968 217.671 76.9257 218.713 74.4262L221.996 76.2718Z" fill="#38B6FF"/>
<path d="M246.122 79.1703V84.4466C245.335 84.4466 244.348 84.4438 243.156 84.4353C241.97 84.4296 240.608 84.4126 239.068 84.39C238.91 86.2695 238.531 87.883 237.936 89.2247C237.339 90.5692 236.51 91.7496 235.445 92.7686C234.387 93.7792 233.096 94.7331 231.573 95.6332L228.55 93.9235L223.738 89.7569C225.858 88.9954 227.432 88.1774 228.459 87.2999C229.492 86.4252 230.175 85.4543 230.509 84.39C230.296 84.39 230.07 84.3985 229.829 84.4126C229.586 84.4211 229.371 84.424 229.184 84.424C228.451 84.424 227.74 84.4296 227.055 84.4353C226.376 84.4438 225.799 84.4551 225.323 84.4693L222.232 82.703V77.3927C222.821 77.4323 223.409 77.4663 223.998 77.4946C224.587 77.5173 225.36 77.5286 226.319 77.5286C226.13 77.3871 225.934 77.2455 225.731 77.1097C225.532 76.9738 225.323 76.8351 225.097 76.6907V71.539C225.753 71.5617 226.523 71.5843 227.406 71.6069C228.295 71.6296 229.221 71.6522 230.18 71.6749C231.146 71.6919 232.077 71.6975 232.977 71.6975C234.087 71.6975 235.174 71.6919 236.238 71.6749C237.308 71.6522 238.267 71.6352 239.114 71.6183L240.597 72.4561C240.891 72.2976 241.211 72.1221 241.559 71.924C241.905 71.7202 242.227 71.539 242.522 71.3805L245.284 73.1581L247.73 76.9511L245.783 78.2532C245.865 78.3608 245.921 78.4684 245.952 78.5816C245.989 78.6948 246.046 78.8137 246.122 78.9326L245.885 79.0571L246.122 79.1703ZM242.556 76.0114L244.141 75.0829C243.914 74.6697 243.643 74.2309 243.326 73.7695C243.014 73.311 242.714 72.8864 242.42 72.5014L240.914 73.3619C241.208 73.8007 241.497 74.2507 241.786 74.7093C242.072 75.1622 242.329 75.5981 242.556 76.0114ZM238.593 76.0114V72.5354C237.814 72.5524 236.906 72.5665 235.864 72.5807C234.823 72.5977 233.747 72.6033 232.637 72.6033C231.406 72.6033 230.203 72.5977 229.025 72.5807C227.848 72.5665 226.851 72.541 226.036 72.5014V76.0453C226.693 76.0227 227.463 76.0086 228.346 76.0001C229.229 75.9944 230.172 75.9859 231.177 75.9774C232.187 75.9718 233.181 75.9661 234.154 75.9661C234.998 75.9661 235.802 75.9718 236.566 75.9774C237.328 75.9859 238.004 75.9972 238.593 76.0114ZM240.597 77.9928L242.193 77.053C241.944 76.6086 241.675 76.1529 241.39 75.683C241.109 75.216 240.823 74.7716 240.529 74.347L238.989 75.2075C239.284 75.6462 239.569 76.1076 239.85 76.5888C240.127 77.0729 240.376 77.5399 240.597 77.9928ZM225.481 90.1192L228.89 93.0064C230.277 92.2082 231.44 91.3278 232.377 90.3683C233.311 89.403 234.041 88.2481 234.562 86.9036C235.083 85.5619 235.394 83.9201 235.502 81.9783C237.146 81.9953 238.562 82.001 239.748 82.001C240.939 82.001 241.857 82.0095 242.499 82.0236V78.3551C241.961 78.3778 241.259 78.3948 240.393 78.4004C239.524 78.4089 238.562 78.4174 237.506 78.4231C236.447 78.4316 235.338 78.4429 234.177 78.457C233.014 78.4655 231.859 78.4684 230.712 78.4684C229.133 78.4684 227.661 78.4627 226.297 78.4457C224.938 78.4231 223.885 78.3948 223.138 78.3551V82.0236C223.732 82.0095 224.525 81.9981 225.515 81.9896C226.503 81.984 227.556 81.9783 228.674 81.9783C229.79 81.9783 230.843 81.9783 231.833 81.9783C231.794 83.2096 231.573 84.3334 231.165 85.3524C230.758 86.3658 230.095 87.2659 229.184 88.0585C228.278 88.8454 227.044 89.5304 225.481 90.1192Z" fill="#38B6FF"/>
<path d="M260.432 95.4067H255.801L252.733 93.6291C252.747 92.7856 252.758 91.9873 252.767 91.2401C252.772 90.4928 252.778 89.6945 252.778 88.8397C252.399 89.052 251.997 89.2699 251.567 89.4964C251.142 89.7228 250.698 89.9578 250.23 90.1984L247.162 88.4547L244.218 84.3673C245.577 83.8182 246.972 83.1388 248.408 82.3293C249.848 81.5225 251.233 80.6252 252.563 79.6345C253.89 78.6466 255.091 77.605 256.163 76.5095C257.242 75.4169 258.091 74.313 258.711 73.2034L261.938 75.0263L265.788 77.9928C264.919 79.0514 264.021 80.0535 263.093 81.0045C262.17 81.95 261.25 82.802 260.33 83.5634V85.726C260.33 86.6629 260.333 87.6905 260.341 88.8057C260.347 89.9238 260.358 91.0561 260.375 92.2025C260.398 93.3489 260.415 94.416 260.432 95.4067ZM253.639 92.9497H256.786C256.769 91.6533 256.752 90.2182 256.73 88.6472C256.713 87.079 256.707 85.61 256.707 84.2428V81.6386C257.641 80.8404 258.541 80.0195 259.402 79.1816C260.262 78.3381 261.066 77.4719 261.813 76.5888L259.051 74.4828C258.462 75.4735 257.664 76.4699 256.662 77.4719C255.657 78.4768 254.527 79.442 253.276 80.3705C252.031 81.2989 250.746 82.1481 249.427 82.918C248.105 83.6823 246.848 84.3107 245.656 84.8089L247.626 87.6169C248.637 87.0677 249.645 86.4959 250.649 85.9072C251.651 85.3184 252.668 84.6589 253.695 83.9257V86.5752C253.695 87.6706 253.69 88.7802 253.684 89.904C253.675 91.0221 253.661 92.0383 253.639 92.9497Z" fill="#38B6FF"/>
<path d="M288.691 77.2908V82.6463C288.048 82.618 287.312 82.5897 286.483 82.5671C285.651 82.5387 284.618 82.5161 283.381 82.4991C283.086 84.5089 282.591 86.3346 281.897 87.9792C281.201 89.6181 280.193 91.0787 278.874 92.361C277.561 93.6433 275.8 94.7529 273.598 95.6898L270.609 93.9688L266.103 89.4964C268.503 88.9246 270.419 88.0698 271.854 86.9375C273.295 85.7996 274.311 84.3079 274.9 82.4652C274.725 82.4652 274.577 82.4652 274.459 82.4652C274.337 82.4652 274.277 82.4652 274.277 82.4652C273.757 83.2351 273.185 83.971 272.568 84.673C271.956 85.375 271.235 86.1421 270.405 86.9715L267.518 85.3297L263.329 81.9443C265.389 80.2856 267.011 78.457 268.197 76.4642C269.389 74.4658 270.201 72.4335 270.632 70.3728L275.421 71.5729L278.569 73.3392C278.342 74.2903 278.116 75.0603 277.889 75.649C278.552 75.649 279.149 75.649 279.678 75.649C280.205 75.649 280.771 75.6434 281.377 75.6264C281.156 75.332 280.904 75.0036 280.618 74.6413C280.329 74.2734 279.967 73.8374 279.531 73.3392L282.418 71.1767L282.532 71.2786L284.4 69.8519L287.23 71.5729C288.097 72.4731 289.07 73.6308 290.152 75.0489L288.012 76.9285C288.261 77.0643 288.487 77.1861 288.691 77.2908ZM285 74.4828L286.46 73.3392C286.18 72.9543 285.863 72.558 285.509 72.1504C285.153 71.7428 284.802 71.3663 284.456 71.0181L283.041 72.0598C283.386 72.4448 283.732 72.8467 284.071 73.26C284.411 73.6761 284.72 74.0837 285 74.4828ZM282.815 76.0906L284.298 74.9244C283.981 74.4941 283.652 74.0724 283.313 73.6563C282.979 73.2345 282.639 72.8354 282.294 72.4561L280.89 73.5204C281.597 74.3526 282.24 75.2075 282.815 76.0906ZM267.903 90.0399L270.971 93.0856C273.001 92.2195 274.617 91.1608 275.817 89.9153C277.023 88.6642 277.937 87.2149 278.557 85.5675C279.174 83.9229 279.613 82.0859 279.871 80.0535C281.19 80.0705 282.271 80.0818 283.109 80.0874C283.952 80.0959 284.609 80.1186 285.079 80.1554V76.4303C284.504 76.4529 283.768 76.4756 282.871 76.4982C281.98 76.5209 281.003 76.5407 279.939 76.5548C278.874 76.5633 277.793 76.5661 276.7 76.5661C276.112 76.5661 275.529 76.5661 274.957 76.5661C274.382 76.5661 273.827 76.5548 273.292 76.5322C273.601 75.7934 273.881 75.0829 274.13 74.4036C274.385 73.7242 274.609 73.0562 274.798 72.3995L271.368 71.5163C270.966 73.3053 270.213 75.1282 269.103 76.9851C267.993 78.8363 266.544 80.5064 264.755 82.0009L267.744 84.39C268.407 83.7333 269.041 83.0426 269.647 82.318C270.249 81.5877 270.813 80.8206 271.334 80.0195C271.996 80.0053 272.766 79.9969 273.643 79.9969C274.518 79.9969 275.438 79.9969 276.406 79.9969C275.99 82.8813 275.062 85.1259 273.621 86.7337C272.186 88.3359 270.281 89.437 267.903 90.0399Z" fill="#38B6FF"/>
<path d="M308.99 80.88V86.3148H296.184C294.763 86.3148 293.399 86.3148 292.086 86.3148C290.778 86.3148 289.64 86.3261 288.666 86.3488L285.575 84.6051V79.1364C286.351 79.1364 287.245 79.1448 288.259 79.159C289.278 79.1675 290.345 79.176 291.463 79.1816C292.587 79.1901 293.693 79.193 294.78 79.193C296.139 79.193 297.489 79.1901 298.834 79.1816C300.176 79.176 301.455 79.1675 302.672 79.159C303.886 79.1448 304.962 79.1364 305.899 79.1364L308.99 80.88ZM305.378 83.9258V80.0535C304.178 80.0705 302.734 80.0818 301.053 80.0874C299.369 80.0959 297.645 80.0988 295.879 80.0988C294.112 80.0988 292.397 80.0931 290.738 80.0761C289.085 80.062 287.676 80.0421 286.515 80.0195V83.9031C287.358 83.8805 288.344 83.8663 289.47 83.8578C290.602 83.8522 291.803 83.8465 293.071 83.8465C294.526 83.8465 296.003 83.8522 297.498 83.8578C298.998 83.8663 300.433 83.8776 301.8 83.8918C303.173 83.9003 304.365 83.9116 305.378 83.9258Z" fill="#38B6FF"/>
<path d="M330.953 91.8855L326.243 95.1464L323.096 93.3235C323.042 93.1791 322.977 93.0234 322.903 92.8592C322.827 92.7007 322.77 92.5422 322.733 92.3837C321.222 92.5733 319.656 92.7771 318.034 92.9951C316.41 93.2131 314.87 93.4254 313.415 93.6292C311.957 93.8386 310.709 94.0396 309.667 94.2292L306.576 92.4629L305.738 86.5526C306.016 86.5696 306.276 86.5753 306.52 86.5753C306.76 86.5753 306.978 86.5753 307.176 86.5753C307.522 86.5753 307.827 86.5724 308.093 86.5639C308.365 86.5583 308.614 86.547 308.841 86.53C309.308 85.3015 309.792 83.9654 310.29 82.5218C310.794 81.081 311.275 79.6318 311.728 78.174C312.181 76.7191 312.58 75.349 312.928 74.0639C313.273 72.7817 313.534 71.6919 313.709 70.7917L319.144 72.5581L322.292 74.381C321.944 75.1962 321.612 75.9859 321.295 76.7474C320.984 77.5116 320.656 78.3863 320.31 79.3742L321.329 78.9552L324.375 80.6989C325.083 81.6585 325.841 82.7596 326.651 84.0051C327.458 85.2505 328.239 86.5526 328.995 87.9113C329.748 89.2643 330.401 90.5891 330.953 91.8855ZM323.696 92.361L327.104 90.0173C326.634 88.9247 326.062 87.7754 325.383 86.5753C324.709 85.3694 324.004 84.1919 323.265 83.0427C322.524 81.8963 321.833 80.8886 321.193 80.0196L317.865 81.4235C318.368 82.1199 318.884 82.8841 319.404 83.722C319.925 84.5542 320.446 85.4374 320.967 86.3715C319.75 86.53 318.493 86.6715 317.197 86.7904C315.906 86.9121 314.604 87.0338 313.29 87.1527C313.743 86.029 314.191 84.8373 314.638 83.5748C315.091 82.3152 315.532 81.0612 315.962 79.8158C316.398 78.5703 316.823 77.3899 317.231 76.2718C317.638 75.1481 318.023 74.1602 318.385 73.3053L314.434 72.0372C314.275 72.8015 314.026 73.7894 313.687 75.0037C313.353 76.2209 312.956 77.5484 312.498 78.9892C312.036 80.4243 311.547 81.8764 311.026 83.3484C310.505 84.8146 309.99 86.1677 309.486 87.4131C308.965 87.4528 308.478 87.4782 308.025 87.4924C307.578 87.5094 307.176 87.515 306.814 87.515L307.403 91.6817C308.269 91.5458 309.308 91.3958 310.516 91.2288C311.722 91.0646 313.019 90.8891 314.4 90.708C315.787 90.5268 317.185 90.34 318.589 90.1418C319.999 89.938 321.329 89.7399 322.575 89.5417C322.801 90.0484 323.005 90.5353 323.186 91.0023C323.367 91.4722 323.537 91.9251 323.696 92.361ZM317.785 85.8506C318.034 85.8223 318.32 85.7799 318.646 85.7261C318.977 85.6751 319.257 85.6355 319.484 85.6129C319.339 85.3723 319.172 85.0779 318.986 84.7297C318.796 84.3844 318.629 84.09 318.487 83.8465C318.388 84.1268 318.267 84.4665 318.125 84.8656C317.989 85.2675 317.876 85.5959 317.785 85.8506Z" fill="#38B6FF"/>
<path d="M346.543 75.1848C347.154 75.1848 347.647 74.9924 348.026 74.6074C348.411 74.2168 348.603 73.662 348.603 72.943C348.603 72.3401 348.436 71.8107 348.105 71.3579C347.771 70.905 347.245 70.6785 346.52 70.6785C345.877 70.6785 345.368 70.8823 344.991 71.2899C344.621 71.6975 344.437 72.241 344.437 72.9204C344.437 73.5261 344.609 74.0526 344.957 74.5055C345.303 74.9584 345.832 75.1848 346.543 75.1848ZM346.361 91.3986L346.758 87.4131C345.971 87.549 345.11 87.6679 344.176 87.7641C343.239 87.8632 342.288 87.9396 341.323 87.9905C340.363 88.0358 339.449 88.0698 338.583 88.0925C337.714 88.1094 336.952 88.1151 336.296 88.1151C335.495 88.1151 334.914 88.1009 334.552 88.0698C334.19 88.033 333.958 87.9311 333.861 87.7641C333.762 87.5999 333.714 87.3423 333.714 86.9942V82.9068C335.834 82.4086 337.986 81.817 340.168 81.1291C342.356 80.4441 344.439 79.6572 346.418 78.7741L343.972 75.5245C343.157 76.0454 342.166 76.5435 341.006 77.0191C339.843 77.4946 338.628 77.9249 337.36 78.3098C336.092 78.6891 334.886 79.0175 333.748 79.2949C333.762 78.0664 333.788 76.8691 333.827 75.7057C333.873 74.5451 333.932 73.4752 334.009 72.5014L330.306 72.3769C330.343 73.26 330.368 74.2762 330.385 75.4226C330.4 76.5634 330.408 77.7409 330.408 78.9552C330.408 80.0648 330.402 81.1574 330.397 82.2274C330.388 83.2917 330.374 84.2541 330.351 85.1146C330.334 85.9695 330.329 86.6488 330.329 87.1527V87.4924C330.329 88.9869 330.702 90.0456 331.45 90.6627C332.197 91.2741 333.239 91.5798 334.575 91.5798C335.826 91.6336 337.128 91.659 338.481 91.659C339.967 91.659 341.402 91.6336 342.784 91.5798C344.165 91.5288 345.357 91.4665 346.361 91.3986ZM350.471 88.1377L349.928 93.765C348.629 93.8697 347.168 93.9462 345.546 93.9915C343.921 94.0424 342.297 94.0707 340.666 94.0707C339.503 94.0707 338.385 94.0707 337.315 94.0707C336.25 94.0707 335.268 93.8811 334.371 93.5046C333.38 93.0517 332.565 92.6384 331.925 92.2591C331.283 91.8742 330.773 91.475 330.397 91.0589C330.026 90.6457 329.766 90.1616 329.615 89.6097C329.471 89.052 329.4 88.3529 329.4 87.515V87.1527C329.4 86.6319 329.406 85.9468 329.423 85.092C329.437 84.2315 329.451 83.2663 329.468 82.1934C329.491 81.115 329.502 80.0082 329.502 78.876C329.502 78.0466 329.491 77.1861 329.468 76.2944C329.451 75.3971 329.437 74.5253 329.423 73.679C329.406 72.8269 329.381 72.0712 329.344 71.4145L334.575 71.5956L337.7 73.3619C337.632 74.0951 337.575 74.7631 337.53 75.366C337.485 75.9718 337.445 76.6313 337.417 77.3474C338.54 76.9795 339.67 76.552 340.802 76.068C341.94 75.5868 342.959 75.0575 343.859 74.4829C343.616 74.03 343.497 73.5091 343.497 72.9204C343.497 72.3316 343.638 71.7994 343.927 71.3239C344.213 70.8483 344.587 70.4719 345.048 70.1916C345.507 69.9142 345.999 69.7727 346.52 69.7727C346.775 69.7727 346.998 69.7897 347.188 69.818C347.383 69.8406 347.607 69.9142 347.856 70.0331C348.111 70.1548 348.448 70.3445 348.864 70.5992C349.277 70.8483 349.84 71.1965 350.551 71.6409C351.072 71.9749 351.479 72.3939 351.774 72.8977C352.068 73.3959 352.215 73.9337 352.215 74.5055C352.215 75.0801 352.082 75.6009 351.819 76.068C351.561 76.5379 351.21 76.9143 350.766 77.2002C350.327 77.489 349.84 77.6305 349.305 77.6305C349.184 77.6305 349.025 77.6248 348.83 77.6079C348.64 77.5852 348.38 77.5144 348.048 77.3927L350.528 80.6762C348.165 81.7349 345.88 82.6237 343.678 83.3483C341.481 84.0673 339.367 84.6731 337.337 85.1713V87.2093C338.249 87.1867 339.274 87.1527 340.406 87.1074C341.544 87.0564 342.716 86.9687 343.916 86.847C345.116 86.7196 346.243 86.5526 347.301 86.3488L350.471 88.1377ZM346.543 74.0413C346.231 74.0413 345.976 73.9337 345.773 73.7129C345.575 73.495 345.478 73.2374 345.478 72.943C345.478 72.6486 345.575 72.3967 345.773 72.1844C345.976 71.9664 346.217 71.856 346.497 71.856C346.806 71.856 347.052 71.9664 347.233 72.1844C347.414 72.3967 347.505 72.6486 347.505 72.943C347.505 73.3138 347.403 73.5884 347.199 73.7695C347.001 73.9507 346.783 74.0413 346.543 74.0413Z" fill="#38B6FF"/>
<path d="M357.84 95.5086L354.851 93.8103L351.409 89.621C353.787 89.086 355.681 88.4095 357.093 87.5942C358.511 86.779 359.595 85.8166 360.343 84.707C360.221 84.7466 360.105 84.7834 359.992 84.8202C359.878 84.8514 359.76 84.8825 359.641 84.9108L358.599 84.3447C358.038 84.5485 357.47 84.7749 356.889 85.024C356.306 85.2675 355.729 85.5081 355.157 85.7487L352.043 83.9258C351.551 81.548 350.758 79.1647 349.666 76.77L353.934 75.4452L354.953 76.0114L354.93 75.9095L359.267 75.0037L362.313 76.7473C362.335 76.7643 362.361 76.8266 362.392 76.9398C362.429 77.053 362.483 77.1521 362.55 77.2342C362.587 76.9257 362.618 76.5973 362.641 76.2491C362.664 75.9038 362.692 75.5019 362.732 75.049L367.204 75.7283L370.329 77.5286C370.117 79.7478 369.763 81.7943 369.265 83.6653C368.772 85.5392 368.059 87.2263 367.125 88.7265C366.188 90.2295 364.965 91.5514 363.456 92.6894C361.945 93.8216 360.074 94.7614 357.84 95.5086ZM357.376 82.3633L360.365 81.5028C360.176 80.5687 359.952 79.5978 359.697 78.5929C359.448 77.5908 359.202 76.7417 358.961 76.0453L356.074 76.6454C356.368 77.4097 356.632 78.3155 356.867 79.3628C357.099 80.413 357.269 81.4122 357.376 82.3633ZM352.813 83.0653L355.632 81.9217C355.406 81.0017 355.114 80.0591 354.761 79.0911C354.404 78.1173 354.036 77.2427 353.651 76.4643L350.945 77.3701C351.33 78.1853 351.687 79.1137 352.021 80.1554C352.36 81.197 352.624 82.168 352.813 83.0653ZM353.074 90.2211L355.315 92.9271C357.331 92.2563 359.018 91.4071 360.377 90.3796C361.735 89.3549 362.839 88.1575 363.694 86.7903C364.546 85.4175 365.2 83.8805 365.653 82.1821C366.111 80.4837 366.428 78.6212 366.604 76.5888L363.57 76.1246C363.439 77.9588 363.199 79.6345 362.845 81.1518C362.488 82.669 361.933 84.0248 361.18 85.2165C360.425 86.4026 359.392 87.4131 358.078 88.2509C356.77 89.0831 355.103 89.7398 353.074 90.2211Z" fill="#38B6FF"/>
<path d="M390.651 75.4226L393.097 77.8682C392.4 80.3139 391.608 82.4652 390.719 84.3221C389.827 86.1733 388.777 87.7952 387.571 89.1907C386.362 90.589 384.939 91.7949 383.303 92.8139C381.664 93.8244 379.742 94.7048 377.539 95.452L374.55 93.765L370.044 88.8963C372.662 88.4434 374.822 87.8065 376.52 86.9828C378.224 86.162 379.592 85.225 380.619 84.1749C381.652 83.1275 382.456 82.0293 383.031 80.88C382.855 80.88 382.657 80.8885 382.431 80.9027C382.204 80.9112 382.003 80.9225 381.831 80.9366C381.134 81.9415 380.274 82.8954 379.249 83.8012C378.23 84.7014 377.024 85.6015 375.637 86.5073L372.829 84.9108L368.357 80.9819C370.242 80.2431 371.824 79.2807 373.101 78.0947C374.375 76.903 375.391 75.6236 376.147 74.2564C376.9 72.8835 377.443 71.556 377.777 70.2709L382.635 71.8334L385.737 73.6223L385.658 73.8601L387.764 73.7808L390.651 75.4226ZM371.867 89.5191L374.992 92.9045C376.999 92.211 378.757 91.3958 380.268 90.4588C381.777 89.5247 383.09 88.4066 384.208 87.1074C385.332 85.8025 386.309 84.2768 387.141 82.5331C387.97 80.7894 388.706 78.774 389.349 76.4869L387.503 74.7206C386.657 74.7376 385.663 74.7602 384.525 74.7885C383.393 74.8112 382.207 74.831 380.97 74.8451C381.165 74.4149 381.335 74.0186 381.48 73.6563C381.63 73.2883 381.774 72.9288 381.91 72.5807L378.457 71.4371C378.23 72.2919 377.885 73.1892 377.426 74.1318C376.965 75.0773 376.39 76.0057 375.705 76.9172C375.017 77.823 374.205 78.6608 373.271 79.4307C372.334 80.195 371.27 80.8347 370.078 81.3556L373.169 84.0277C374.383 83.2351 375.462 82.3746 376.407 81.4461C377.35 80.5177 378.168 79.5411 378.864 78.5136C379.821 78.4853 380.698 78.457 381.491 78.4344C382.289 78.4061 383.104 78.3891 383.937 78.3891C384.109 78.3891 384.288 78.3891 384.469 78.3891C384.656 78.3891 384.837 78.3891 385.012 78.3891C384.678 79.5298 384.2 80.6762 383.574 81.8311C382.946 82.986 382.128 84.0786 381.117 85.1033C380.104 86.1223 378.836 87.0225 377.313 87.798C375.796 88.568 373.979 89.1426 371.867 89.5191Z" fill="#38B6FF"/>
<path d="M414.879 90.8777L410.587 94.9538L407.462 93.1875C406.942 92.5167 406.392 91.8515 405.821 91.1948C405.255 90.5324 404.691 89.9323 404.134 89.3945C403.143 90.3994 402.045 91.3618 400.839 92.2817C399.639 93.2017 398.249 94.1443 396.672 95.1123L393.649 93.4026L389.335 89.236C391.501 88.2792 393.358 87.2545 394.906 86.1676C396.46 85.075 397.759 83.9654 398.801 82.8388C399.842 81.7065 400.675 80.6139 401.303 79.5553C400.411 79.5723 399.503 79.5892 398.574 79.6119C397.652 79.6289 396.845 79.6543 396.151 79.6911L393.049 77.9135L393.026 72.4221C394 72.4985 395.132 72.5552 396.423 72.592C397.714 72.6231 398.973 72.6372 400.205 72.6372C401.229 72.6372 402.282 72.6316 403.364 72.6146C404.451 72.592 405.495 72.5552 406.5 72.5014L409.387 74.1205L411.991 76.4303C411.403 78.0466 410.771 79.5383 410.101 80.9026C409.435 82.2613 408.697 83.5379 407.881 84.7296C409.059 85.6354 410.253 86.6177 411.471 87.6735C412.685 88.7321 413.82 89.7993 414.879 90.8777ZM407.859 92.2251L410.904 89.3152C410.013 88.4321 408.951 87.4697 407.723 86.428C406.492 85.3863 405.235 84.3786 403.953 83.4049C404.858 82.1085 405.654 80.7781 406.342 79.4194C407.035 78.055 407.661 76.6228 408.221 75.1282L406.274 73.4185C405.3 73.4723 404.284 73.5091 403.228 73.5317C402.169 73.5544 401.128 73.5657 400.103 73.5657C398.939 73.5657 397.83 73.5515 396.774 73.5204C395.715 73.4836 394.781 73.4383 393.966 73.3845L393.989 77.2342C394.787 77.2059 395.732 77.1832 396.819 77.1662C397.912 77.1436 399.053 77.1266 400.239 77.1096C401.43 77.0955 402.554 77.087 403.613 77.087C403.197 78.0777 402.653 79.1222 401.982 80.2233C401.317 81.3272 400.477 82.4312 399.457 83.5408C398.444 84.6504 397.241 85.7232 395.846 86.7564C394.447 87.7839 392.814 88.7236 390.943 89.5757L393.989 92.4855C395.565 91.5514 396.992 90.5579 398.269 89.5077C399.542 88.4604 400.709 87.3451 401.767 86.1676C402.891 87.0139 403.981 87.9679 405.039 89.0322C406.104 90.0908 407.044 91.1551 407.859 92.2251Z" fill="#38B6FF"/>
</svg>
